<svg xmlns="http://www.w3.org/2000/svg" width="1600" height="1000" viewBox="0 0 1600 1000" role="img" aria-labelledby="title desc">
<title id="title">Laguna S 2.1 published capability and local Apple Silicon performance</title>
<desc id="desc">Poolside published Terminal-Bench 2.1 scores beside locally measured MLX and llama.cpp decode speed and peak memory for Laguna S 2.1 quantizations on an M5 Max.</desc>
<rect width="1600" height="1000" fill="#191919" />
<style>text { font-family: "SFMono-Regular", Consolas, "Liberation Mono", ui-monospace, monospace; }</style>
<text x="32.0" y="57.0" font-size="34" font-weight="700" fill="#b17ce8" text-anchor="start">LAGUNA S 2.1</text>
<text x="322.0" y="57.0" font-size="34" font-weight="700" fill="#f0efed" text-anchor="start">ON APPLE SILICON</text>
<text x="32.0" y="98.0" font-size="23" font-weight="500" fill="#b9b8b4" text-anchor="start">FASTEST FIXED DECODE: 68.49 TOK/S, 38.65 GB (PIPE 2B)</text>
<text x="32.0" y="132.0" font-size="15" font-weight="400" fill="#8f8e8a" text-anchor="start">PUBLISHED CAPABILITY AND LOCAL INFERENCE USE DIFFERENT SOURCES AND SCALES</text>
<line x1="24.0" y1="177.0" x2="950.0" y2="177.0" stroke="#666561" stroke-width="1.5" />
<text x="24.0" y="220.0" font-size="24" font-weight="500" fill="#f0efed" text-anchor="start">TERMINAL-BENCH 2.1</text>
<text x="24.0" y="249.0" font-size="14" font-weight="400" fill="#b9b8b4" text-anchor="start">POOLSIDE PUBLISHED, RESOLVED TASKS (%)</text>
<line x1="68.0" y1="760.0" x2="928.0" y2="760.0" stroke="#666561" stroke-width="1" />
<rect x="102.2" y="380.3" width="60.0" height="379.7" rx="3" fill="#74736e" />
<text x="132.2" y="367.3" font-size="18" font-weight="500" fill="#f0efed" text-anchor="middle">88.3</text>
<text x="132.2" y="793.0" font-size="12" font-weight="500" fill="#f0efed" text-anchor="middle">KIMI K3</text>
<text x="132.2" y="834.0" font-size="10" font-weight="400" fill="#85847f" text-anchor="middle">2.8T-A50B</text>
<rect x="194.7" y="381.6" width="60.0" height="378.4" rx="3" fill="#74736e" />
<text x="224.7" y="368.6" font-size="18" font-weight="500" fill="#f0efed" text-anchor="middle">88</text>
<text x="224.7" y="793.0" font-size="12" font-weight="500" fill="#f0efed" text-anchor="middle">CLAUDE</text>
<text x="224.7" y="811.0" font-size="11" font-weight="400" fill="#f0efed" text-anchor="middle">FABLE 5</text>
<rect x="287.1" y="416.0" width="60.0" height="344.0" rx="3" fill="#74736e" />
<text x="317.1" y="403.0" font-size="18" font-weight="500" fill="#f0efed" text-anchor="middle">80</text>
<text x="317.1" y="793.0" font-size="12" font-weight="500" fill="#f0efed" text-anchor="middle">MUSE</text>
<text x="317.1" y="811.0" font-size="11" font-weight="400" fill="#f0efed" text-anchor="middle">SPARK 1.1</text>
<rect x="379.6" y="439.6" width="60.0" height="320.4" rx="3" fill="#74736e" />
<text x="409.6" y="426.6" font-size="18" font-weight="500" fill="#f0efed" text-anchor="middle">74.5*</text>
<text x="409.6" y="793.0" font-size="12" font-weight="500" fill="#f0efed" text-anchor="middle">QWEN</text>
<text x="409.6" y="811.0" font-size="11" font-weight="400" fill="#f0efed" text-anchor="middle">3.7 MAX</text>
<rect x="472.0" y="451.7" width="60.0" height="308.3" rx="3" fill="#74736e" />
<text x="502.0" y="438.7" font-size="18" font-weight="500" fill="#f0efed" text-anchor="middle">71.7</text>
<text x="502.0" y="793.0" font-size="12" font-weight="500" fill="#f0efed" text-anchor="middle">TENCENT</text>
<text x="502.0" y="811.0" font-size="11" font-weight="400" fill="#f0efed" text-anchor="middle">HY3</text>
<text x="502.0" y="834.0" font-size="10" font-weight="400" fill="#85847f" text-anchor="middle">295B-A21B</text>
<rect x="564.4" y="458.1" width="60.0" height="301.9" rx="3" fill="#b17ce8" />
<text x="594.4" y="445.1" font-size="18" font-weight="500" fill="#b17ce8" text-anchor="middle">70.2</text>
<text x="594.4" y="793.0" font-size="12" font-weight="700" fill="#b17ce8" text-anchor="middle">LAGUNA</text>
<text x="594.4" y="811.0" font-size="11" font-weight="400" fill="#b17ce8" text-anchor="middle">S 2.1</text>
<text x="594.4" y="834.0" font-size="10" font-weight="400" fill="#85847f" text-anchor="middle">118B-A8B</text>
<rect x="656.9" y="484.8" width="60.0" height="275.2" rx="3" fill="#74736e" />
<text x="686.9" y="471.8" font-size="18" font-weight="500" fill="#f0efed" text-anchor="middle">64*</text>
<text x="686.9" y="793.0" font-size="12" font-weight="500" fill="#f0efed" text-anchor="middle">DEEPSEEK</text>
<text x="686.9" y="811.0" font-size="11" font-weight="400" fill="#f0efed" text-anchor="middle">V4 PRO MAX</text>
<text x="686.9" y="834.0" font-size="10" font-weight="400" fill="#85847f" text-anchor="middle">1.6T-A49B</text>
<rect x="749.3" y="485.7" width="60.0" height="274.3" rx="3" fill="#74736e" />
<text x="779.3" y="472.7" font-size="18" font-weight="500" fill="#f0efed" text-anchor="middle">63.8</text>
<text x="779.3" y="793.0" font-size="12" font-weight="500" fill="#f0efed" text-anchor="middle">INKLING</text>
<text x="779.3" y="834.0" font-size="10" font-weight="400" fill="#85847f" text-anchor="middle">975B-A41B</text>
<rect x="841.8" y="517.5" width="60.0" height="242.5" rx="3" fill="#74736e" />
<text x="871.8" y="504.5" font-size="18" font-weight="500" fill="#f0efed" text-anchor="middle">56.4</text>
<text x="871.8" y="793.0" font-size="12" font-weight="500" fill="#f0efed" text-anchor="middle">NEMOTRON</text>
<text x="871.8" y="811.0" font-size="11" font-weight="400" fill="#f0efed" text-anchor="middle">3 ULTRA</text>
<text x="871.8" y="834.0" font-size="10" font-weight="400" fill="#85847f" text-anchor="middle">550B-A55B</text>
<text x="24.0" y="872.0" font-size="12" font-weight="400" fill="#85847f" text-anchor="start">* POOLSIDE MARKS THIS TERMINAL-BENCH SCORE AS THIRD-PARTY REPORTED</text>
<line x1="985.0" y1="177.0" x2="1576.0" y2="177.0" stroke="#666561" stroke-width="1.5" />
<text x="985.0" y="220.0" font-size="22" font-weight="500" fill="#f0efed" text-anchor="start">FIXED 256-TOKEN DECODE TOK/S</text>
<text x="985.0" y="249.0" font-size="14" font-weight="400" fill="#b9b8b4" text-anchor="start">MLX-VLM, MLX-LM, JANG, OR LLAMA.CPP; GREEDY</text>
<line x1="1000.0" y1="474.0" x2="1568.0" y2="474.0" stroke="#666561" stroke-width="1" />
<rect x="1033.1" y="321.6" width="41.8" height="152.4" rx="3" fill="#74736e" />
<text x="1054.1" y="308.6" font-size="18" font-weight="500" fill="#f0efed" text-anchor="middle">62.68</text>
<text x="1054.1" y="505.0" font-size="10" font-weight="500" fill="#f0efed" text-anchor="middle">IQ1_M</text>
<text x="1054.1" y="525.0" font-size="9" font-weight="400" fill="#85847f" text-anchor="middle">79.2%</text>
<rect x="1091.2" y="340.2" width="41.8" height="133.8" rx="3" fill="#74736e" />
<text x="1112.2" y="327.2" font-size="18" font-weight="500" fill="#f0efed" text-anchor="middle">55.06</text>
<text x="1112.2" y="505.0" font-size="10" font-weight="500" fill="#f0efed" text-anchor="middle">OQ2E</text>
<text x="1112.2" y="525.0" font-size="9" font-weight="400" fill="#85847f" text-anchor="middle">100.0%</text>
<rect x="1149.4" y="307.5" width="41.8" height="166.5" rx="3" fill="#b17ce8" />
<text x="1170.3" y="294.5" font-size="18" font-weight="500" fill="#b17ce8" text-anchor="middle">68.49</text>
<text x="1170.3" y="505.0" font-size="10" font-weight="700" fill="#b17ce8" text-anchor="middle">PIPE 2B</text>
<text x="1170.3" y="525.0" font-size="9" font-weight="400" fill="#85847f" text-anchor="middle">100.0%</text>
<rect x="1207.5" y="338.1" width="41.8" height="135.9" rx="3" fill="#74736e" />
<text x="1228.4" y="325.1" font-size="18" font-weight="500" fill="#f0efed" text-anchor="middle">55.93</text>
<text x="1228.4" y="505.0" font-size="10" font-weight="500" fill="#f0efed" text-anchor="middle">Q2_K_XL</text>
<text x="1228.4" y="525.0" font-size="9" font-weight="400" fill="#85847f" text-anchor="middle">87.5%</text>
<rect x="1265.6" y="354.2" width="41.8" height="119.8" rx="3" fill="#74736e" />
<text x="1286.5" y="341.2" font-size="18" font-weight="500" fill="#f0efed" text-anchor="middle">49.29</text>
<text x="1286.5" y="505.0" font-size="10" font-weight="500" fill="#f0efed" text-anchor="middle">JANG 2L</text>
<text x="1286.5" y="525.0" font-size="9" font-weight="400" fill="#85847f" text-anchor="middle">41.7%</text>
<rect x="1323.7" y="326.2" width="41.8" height="147.8" rx="3" fill="#74736e" />
<text x="1344.6" y="313.2" font-size="18" font-weight="500" fill="#f0efed" text-anchor="middle">60.83</text>
<text x="1344.6" y="505.0" font-size="10" font-weight="500" fill="#f0efed" text-anchor="middle">OQ3E</text>
<text x="1344.6" y="525.0" font-size="9" font-weight="400" fill="#85847f" text-anchor="middle">62.5%</text>
<rect x="1381.8" y="315.3" width="41.8" height="158.7" rx="3" fill="#74736e" />
<text x="1402.7" y="302.3" font-size="18" font-weight="500" fill="#f0efed" text-anchor="middle">65.31</text>
<text x="1402.7" y="505.0" font-size="10" font-weight="500" fill="#f0efed" text-anchor="middle">PIPE 3B</text>
<text x="1402.7" y="525.0" font-size="9" font-weight="400" fill="#85847f" text-anchor="middle">87.5%</text>
<rect x="1439.9" y="347.6" width="41.8" height="126.4" rx="3" fill="#74736e" />
<text x="1460.8" y="334.6" font-size="18" font-weight="500" fill="#f0efed" text-anchor="middle">52.00</text>
<text x="1460.8" y="505.0" font-size="10" font-weight="500" fill="#f0efed" text-anchor="middle">OQ4E</text>
<text x="1460.8" y="525.0" font-size="9" font-weight="400" fill="#85847f" text-anchor="middle">87.5%</text>
<rect x="1498.0" y="410.4" width="41.8" height="63.6" rx="3" fill="#74736e" />
<text x="1518.9" y="397.4" font-size="18" font-weight="500" fill="#f0efed" text-anchor="middle">26.16</text>
<text x="1518.9" y="505.0" font-size="10" font-weight="500" fill="#f0efed" text-anchor="middle">NVFP4</text>
<text x="1518.9" y="525.0" font-size="9" font-weight="400" fill="#85847f" text-anchor="middle">87.5%</text>
<line x1="985.0" y1="575.0" x2="1576.0" y2="575.0" stroke="#666561" stroke-width="1.5" />
<text x="985.0" y="618.0" font-size="24" font-weight="500" fill="#f0efed" text-anchor="start">PEAK MEMORY (GB)</text>
<text x="985.0" y="647.0" font-size="14" font-weight="400" fill="#b9b8b4" text-anchor="start">MLX ALLOCATOR PEAK; GGUF PROCESS MAX RSS</text>
<line x1="1000.0" y1="870.0" x2="1568.0" y2="870.0" stroke="#666561" stroke-width="1" />
<rect x="1033.1" y="795.1" width="41.8" height="74.9" rx="3" fill="#74736e" />
<text x="1054.1" y="782.1" font-size="18" font-weight="500" fill="#f0efed" text-anchor="middle">34.22</text>
<text x="1054.1" y="901.0" font-size="10" font-weight="500" fill="#f0efed" text-anchor="middle">IQ1_M</text>
<rect x="1091.2" y="788.6" width="41.8" height="81.4" rx="3" fill="#74736e" />
<text x="1112.2" y="775.6" font-size="18" font-weight="500" fill="#f0efed" text-anchor="middle">37.22</text>
<text x="1112.2" y="901.0" font-size="10" font-weight="500" fill="#f0efed" text-anchor="middle">OQ2E</text>
<rect x="1149.4" y="785.5" width="41.8" height="84.5" rx="3" fill="#b17ce8" />
<text x="1170.3" y="772.5" font-size="18" font-weight="500" fill="#b17ce8" text-anchor="middle">38.65</text>
<text x="1170.3" y="901.0" font-size="10" font-weight="700" fill="#b17ce8" text-anchor="middle">PIPE 2B</text>
<rect x="1207.5" y="786.9" width="41.8" height="83.1" rx="3" fill="#74736e" />
<text x="1228.4" y="773.9" font-size="18" font-weight="500" fill="#f0efed" text-anchor="middle">37.99</text>
<text x="1228.4" y="901.0" font-size="10" font-weight="500" fill="#f0efed" text-anchor="middle">Q2_K_XL</text>
<rect x="1265.6" y="770.9" width="41.8" height="99.1" rx="3" fill="#74736e" />
<text x="1286.5" y="757.9" font-size="18" font-weight="500" fill="#f0efed" text-anchor="middle">45.29</text>
<text x="1286.5" y="901.0" font-size="10" font-weight="500" fill="#f0efed" text-anchor="middle">JANG 2L</text>
<rect x="1323.7" y="760.1" width="41.8" height="109.9" rx="3" fill="#74736e" />
<text x="1344.6" y="747.1" font-size="18" font-weight="500" fill="#f0efed" text-anchor="middle">50.23</text>
<text x="1344.6" y="901.0" font-size="10" font-weight="500" fill="#f0efed" text-anchor="middle">OQ3E</text>
<rect x="1381.8" y="755.5" width="41.8" height="114.5" rx="3" fill="#74736e" />
<text x="1402.7" y="742.5" font-size="18" font-weight="500" fill="#f0efed" text-anchor="middle">52.34</text>
<text x="1402.7" y="901.0" font-size="10" font-weight="500" fill="#f0efed" text-anchor="middle">PIPE 3B</text>
<rect x="1439.9" y="727.5" width="41.8" height="142.5" rx="3" fill="#74736e" />
<text x="1460.8" y="714.5" font-size="18" font-weight="500" fill="#f0efed" text-anchor="middle">65.12</text>
<text x="1460.8" y="901.0" font-size="10" font-weight="500" fill="#f0efed" text-anchor="middle">OQ4E</text>
<rect x="1498.0" y="710.5" width="41.8" height="159.5" rx="3" fill="#74736e" />
<text x="1518.9" y="697.5" font-size="18" font-weight="500" fill="#f0efed" text-anchor="middle">72.92</text>
<text x="1518.9" y="901.0" font-size="10" font-weight="500" fill="#f0efed" text-anchor="middle">NVFP4</text>
<text x="24.0" y="934.0" font-size="13" font-weight="400" fill="#969590" text-anchor="start">POOLSIDE: MODEL CARD, 21 JULY 2026    LOCAL: COMMITTED CSV, FIXED 256-TOKEN DECODE PROFILE</text>
<text x="24.0" y="965.0" font-size="13" font-weight="500" fill="#b17ce8" text-anchor="start">oQ2e CONTEXT: 64K 32.03 TOK/S, 41.19 GB    |    256K 12.16 TOK/S, 52.87 GB    |    RETRIEVAL PASSED</text>
<text x="1576.0" y="965.0" font-size="13" font-weight="700" fill="#f0efed" text-anchor="end">MACOS-LAGUNA-S2.1</text>
</svg>
